<?xml version="1.0" standalone="no"?>
<!DOCTYPE svg PUBLIC "-//W3C//DTD SVG 1.1//EN" "http://www.w3.org/Graphics/SVG/1.1/DTD/svg11.dtd" >
<svg xmlns="http://www.w3.org/2000/svg">
<metadata></metadata>
<defs>
<font id="dseg7_classic_minilight" horiz-adv-x="1671" >
<font-face units-per-em="2048" ascent="2048" descent="0" />
<missing-glyph horiz-adv-x="409" />
<glyph horiz-adv-x="0" />
<glyph unicode="&#xd;" horiz-adv-x="681" />
<glyph unicode=" "  horiz-adv-x="409" />
<glyph unicode="&#x09;" horiz-adv-x="409" />
<glyph unicode="&#xa0;" horiz-adv-x="409" />
<glyph unicode="-" d="M334 1024l63 63h877l63 -63l-63 -63h-877z" />
<glyph unicode="." horiz-adv-x="0" d="M-127 127q0 25 10.5 49.5t26.5 40.5t40.5 26.5t49.5 10.5t49.5 -10.5t40.5 -26.5t26.5 -40.5t10.5 -49.5t-10.5 -49.5t-26.5 -41t-40.5 -26.5t-49.5 -10t-49.5 10t-40.5 26.5t-26.5 41t-10.5 49.5z" />
<glyph unicode="0" d="M203 195v782h43l20 -21l64 -63v-698l-64 -64zM203 1071v782l63 64l64 -64v-698l-64 -63l-20 -21h-43zM334 63l63 64h877l63 -64l-63 -63h-877zM334 1985l63 63h877l63 -63l-63 -64h-877zM1341 195v698l64 63l20 21h43v-782l-63 -64zM1341 1155v698l64 64l63 -64v-782h-43 l-20 21z" />
<glyph unicode="1" d="M1341 195v698l64 63l20 21h43v-782l-63 -64zM1341 1155v698l64 64l63 -64v-782h-43l-20 21z" />
<glyph unicode="2" d="M203 195v782h43l20 -21l64 -63v-698l-64 -64zM334 63l63 64h877l63 -64l-63 -63h-877zM334 1024l63 63h877l63 -63l-63 -63h-877zM334 1985l63 63h877l63 -63l-63 -64h-877zM1341 1155v698l64 64l63 -64v-782h-43l-20 21z" />
<glyph unicode="3" d="M334 63l63 64h877l63 -64l-63 -63h-877zM334 1024l63 63h877l63 -63l-63 -63h-877zM334 1985l63 63h877l63 -63l-63 -64h-877zM1341 195v698l64 63l20 21h43v-782l-63 -64zM1341 1155v698l64 64l63 -64v-782h-43l-20 21z" />
<glyph unicode="4" d="M203 1071v782l63 64l64 -64v-698l-64 -63l-20 -21h-43zM334 1024l63 63h877l63 -63l-63 -63h-877zM1341 195v698l64 63l20 21h43v-782l-63 -64zM1341 1155v698l64 64l63 -64v-782h-43l-20 21z" />
<glyph unicode="5" d="M203 1071v782l63 64l64 -64v-698l-64 -63l-20 -21h-43zM334 63l63 64h877l63 -64l-63 -63h-877zM334 1024l63 63h877l63 -63l-63 -63h-877zM334 1985l63 63h877l63 -63l-63 -64h-877zM1341 195v698l64 63l20 21h43v-782l-63 -64z" />
<glyph unicode="6" d="M203 195v782h43l20 -21l64 -63v-698l-64 -64zM203 1071v782l63 64l64 -64v-698l-64 -63l-20 -21h-43zM334 63l63 64h877l63 -64l-63 -63h-877zM334 1024l63 63h877l63 -63l-63 -63h-877zM334 1985l63 63h877l63 -63l-63 -64h-877zM1341 195v698l64 63l20 21h43v-782 l-63 -64z" />
<glyph unicode="7" d="M203 1071v782l63 64l64 -64v-698l-64 -63l-20 -21h-43zM334 1985l63 63h877l63 -63l-63 -64h-877zM1341 195v698l64 63l20 21h43v-782l-63 -64zM1341 1155v698l64 64l63 -64v-782h-43l-20 21z" />
<glyph unicode="8" d="M203 195v782h43l20 -21l64 -63v-698l-64 -64zM203 1071v782l63 64l64 -64v-698l-64 -63l-20 -21h-43zM334 63l63 64h877l63 -64l-63 -63h-877zM334 1024l63 63h877l63 -63l-63 -63h-877zM334 1985l63 63h877l63 -63l-63 -64h-877zM1341 195v698l64 63l20 21h43v-782 l-63 -64zM1341 1155v698l64 64l63 -64v-782h-43l-20 21z" />
<glyph unicode="9" d="M203 1071v782l63 64l64 -64v-698l-64 -63l-20 -21h-43zM334 63l63 64h877l63 -64l-63 -63h-877zM334 1024l63 63h877l63 -63l-63 -63h-877zM334 1985l63 63h877l63 -63l-63 -64h-877zM1341 195v698l64 63l20 21h43v-782l-63 -64zM1341 1155v698l64 64l63 -64v-782h-43 l-20 21z" />
<glyph unicode=":" horiz-adv-x="409" d="M78 575.5q0 24.5 10 49.5q10 23 27 39q20 20 41 28q18 8 49 8t49 -8q20 -8 41 -28q16 -16 27 -39q10 -25 10 -49.5t-10.5 -49t-26.5 -41t-41 -26.5t-49.5 -10t-49 10t-41 26.5t-26.5 41t-10 49zM78 1419.5q0 24.5 10 48.5q10 23 27 39q20 20 41 29q18 8 49 8t49 -8 q20 -8 41 -29q16 -16 27 -39q10 -24 10 -48.5t-10.5 -49t-26.5 -41t-41 -27t-49.5 -10.5t-49 10.5t-41 27t-26.5 41t-10 49z" />
<glyph unicode="A" d="M203 195v782h43l20 -21l64 -63v-698l-64 -64zM203 1071v782l63 64l64 -64v-698l-64 -63l-20 -21h-43zM334 1024l63 63h877l63 -63l-63 -63h-877zM334 1985l63 63h877l63 -63l-63 -64h-877zM1341 195v698l64 63l20 21h43v-782l-63 -64zM1341 1155v698l64 64l63 -64v-782 h-43l-20 21z" />
<glyph unicode="B" d="M203 195v782h43l20 -21l64 -63v-698l-64 -64zM203 1071v782l63 64l64 -64v-698l-64 -63l-20 -21h-43zM334 63l63 64h877l63 -64l-63 -63h-877zM334 1024l63 63h877l63 -63l-63 -63h-877zM1341 195v698l64 63l20 21h43v-782l-63 -64z" />
<glyph unicode="C" d="M203 195v782h43l20 -21l64 -63v-698l-64 -64zM334 63l63 64h877l63 -64l-63 -63h-877zM334 1024l63 63h877l63 -63l-63 -63h-877z" />
<glyph unicode="D" d="M203 195v782h43l20 -21l64 -63v-698l-64 -64zM334 63l63 64h877l63 -64l-63 -63h-877zM334 1024l63 63h877l63 -63l-63 -63h-877zM1341 195v698l64 63l20 21h43v-782l-63 -64zM1341 1155v698l64 64l63 -64v-782h-43l-20 21z" />
<glyph unicode="E" d="M203 195v782h43l20 -21l64 -63v-698l-64 -64zM203 1071v782l63 64l64 -64v-698l-64 -63l-20 -21h-43zM334 63l63 64h877l63 -64l-63 -63h-877zM334 1024l63 63h877l63 -63l-63 -63h-877zM334 1985l63 63h877l63 -63l-63 -64h-877z" />
<glyph unicode="F" d="M203 195v782h43l20 -21l64 -63v-698l-64 -64zM203 1071v782l63 64l64 -64v-698l-64 -63l-20 -21h-43zM334 1024l63 63h877l63 -63l-63 -63h-877zM334 1985l63 63h877l63 -63l-63 -64h-877z" />
<glyph unicode="G" d="M203 195v782h43l20 -21l64 -63v-698l-64 -64zM203 1071v782l63 64l64 -64v-698l-64 -63l-20 -21h-43zM334 63l63 64h877l63 -64l-63 -63h-877zM334 1985l63 63h877l63 -63l-63 -64h-877zM1341 195v698l64 63l20 21h43v-782l-63 -64z" />
<glyph unicode="H" d="M203 195v782h43l20 -21l64 -63v-698l-64 -64zM203 1071v782l63 64l64 -64v-698l-64 -63l-20 -21h-43zM334 1024l63 63h877l63 -63l-63 -63h-877zM1341 195v698l64 63l20 21h43v-782l-63 -64z" />
<glyph unicode="I" d="M1341 195v698l64 63l20 21h43v-782l-63 -64z" />
<glyph unicode="J" d="M203 195v782h43l20 -21l64 -63v-698l-64 -64zM334 63l63 64h877l63 -64l-63 -63h-877zM1341 195v698l64 63l20 21h43v-782l-63 -64zM1341 1155v698l64 64l63 -64v-782h-43l-20 21z" />
<glyph unicode="K" d="M203 195v782h43l20 -21l64 -63v-698l-64 -64zM203 1071v782l63 64l64 -64v-698l-64 -63l-20 -21h-43zM334 1024l63 63h877l63 -63l-63 -63h-877zM334 1985l63 63h877l63 -63l-63 -64h-877zM1341 195v698l64 63l20 21h43v-782l-63 -64z" />
<glyph unicode="L" d="M203 195v782h43l20 -21l64 -63v-698l-64 -64zM203 1071v782l63 64l64 -64v-698l-64 -63l-20 -21h-43zM334 63l63 64h877l63 -64l-63 -63h-877z" />
<glyph unicode="M" d="M203 195v782h43l20 -21l64 -63v-698l-64 -64zM203 1071v782l63 64l64 -64v-698l-64 -63l-20 -21h-43zM334 1985l63 63h877l63 -63l-63 -64h-877zM1341 195v698l64 63l20 21h43v-782l-63 -64zM1341 1155v698l64 64l63 -64v-782h-43l-20 21z" />
<glyph unicode="N" d="M203 195v782h43l20 -21l64 -63v-698l-64 -64zM334 1024l63 63h877l63 -63l-63 -63h-877zM1341 195v698l64 63l20 21h43v-782l-63 -64z" />
<glyph unicode="O" d="M203 195v782h43l20 -21l64 -63v-698l-64 -64zM334 63l63 64h877l63 -64l-63 -63h-877zM334 1024l63 63h877l63 -63l-63 -63h-877zM1341 195v698l64 63l20 21h43v-782l-63 -64z" />
<glyph unicode="P" d="M203 195v782h43l20 -21l64 -63v-698l-64 -64zM203 1071v782l63 64l64 -64v-698l-64 -63l-20 -21h-43zM334 1024l63 63h877l63 -63l-63 -63h-877zM334 1985l63 63h877l63 -63l-63 -64h-877zM1341 1155v698l64 64l63 -64v-782h-43l-20 21z" />
<glyph unicode="Q" d="M203 1071v782l63 64l64 -64v-698l-64 -63l-20 -21h-43zM334 1024l63 63h877l63 -63l-63 -63h-877zM334 1985l63 63h877l63 -63l-63 -64h-877zM1341 195v698l64 63l20 21h43v-782l-63 -64zM1341 1155v698l64 64l63 -64v-782h-43l-20 21z" />
<glyph unicode="R" d="M203 195v782h43l20 -21l64 -63v-698l-64 -64zM334 1024l63 63h877l63 -63l-63 -63h-877z" />
<glyph unicode="S" d="M203 1071v782l63 64l64 -64v-698l-64 -63l-20 -21h-43zM334 63l63 64h877l63 -64l-63 -63h-877zM334 1024l63 63h877l63 -63l-63 -63h-877zM1341 195v698l64 63l20 21h43v-782l-63 -64z" />
<glyph unicode="T" d="M203 195v782h43l20 -21l64 -63v-698l-64 -64zM203 1071v782l63 64l64 -64v-698l-64 -63l-20 -21h-43zM334 63l63 64h877l63 -64l-63 -63h-877zM334 1024l63 63h877l63 -63l-63 -63h-877z" />
<glyph unicode="U" d="M203 195v782h43l20 -21l64 -63v-698l-64 -64zM334 63l63 64h877l63 -64l-63 -63h-877zM1341 195v698l64 63l20 21h43v-782l-63 -64z" />
<glyph unicode="V" d="M203 195v782h43l20 -21l64 -63v-698l-64 -64zM203 1071v782l63 64l64 -64v-698l-64 -63l-20 -21h-43zM334 63l63 64h877l63 -64l-63 -63h-877zM1341 195v698l64 63l20 21h43v-782l-63 -64zM1341 1155v698l64 64l63 -64v-782h-43l-20 21z" />
<glyph unicode="W" d="M203 195v782h43l20 -21l64 -63v-698l-64 -64zM203 1071v782l63 64l64 -64v-698l-64 -63l-20 -21h-43zM334 63l63 64h877l63 -64l-63 -63h-877zM334 1024l63 63h877l63 -63l-63 -63h-877zM1341 195v698l64 63l20 21h43v-782l-63 -64zM1341 1155v698l64 64l63 -64v-782h-43 l-20 21z" />
<glyph unicode="X" d="M203 195v782h43l20 -21l64 -63v-698l-64 -64zM203 1071v782l63 64l64 -64v-698l-64 -63l-20 -21h-43zM334 1024l63 63h877l63 -63l-63 -63h-877zM1341 195v698l64 63l20 21h43v-782l-63 -64zM1341 1155v698l64 64l63 -64v-782h-43l-20 21z" />
<glyph unicode="Y" d="M203 1071v782l63 64l64 -64v-698l-64 -63l-20 -21h-43zM334 63l63 64h877l63 -64l-63 -63h-877zM334 1024l63 63h877l63 -63l-63 -63h-877zM1341 195v698l64 63l20 21h43v-782l-63 -64zM1341 1155v698l64 64l63 -64v-782h-43l-20 21z" />
<glyph unicode="Z" d="M203 195v782h43l20 -21l64 -63v-698l-64 -64zM334 63l63 64h877l63 -64l-63 -63h-877zM334 1985l63 63h877l63 -63l-63 -64h-877zM1341 1155v698l64 64l63 -64v-782h-43l-20 21z" />
<glyph unicode="a" d="M203 195v782h43l20 -21l64 -63v-698l-64 -64zM203 1071v782l63 64l64 -64v-698l-64 -63l-20 -21h-43zM334 1024l63 63h877l63 -63l-63 -63h-877zM334 1985l63 63h877l63 -63l-63 -64h-877zM1341 195v698l64 63l20 21h43v-782l-63 -64zM1341 1155v698l64 64l63 -64v-782 h-43l-20 21z" />
<glyph unicode="b" d="M203 195v782h43l20 -21l64 -63v-698l-64 -64zM203 1071v782l63 64l64 -64v-698l-64 -63l-20 -21h-43zM334 63l63 64h877l63 -64l-63 -63h-877zM334 1024l63 63h877l63 -63l-63 -63h-877zM1341 195v698l64 63l20 21h43v-782l-63 -64z" />
<glyph unicode="c" d="M203 195v782h43l20 -21l64 -63v-698l-64 -64zM334 63l63 64h877l63 -64l-63 -63h-877zM334 1024l63 63h877l63 -63l-63 -63h-877z" />
<glyph unicode="d" d="M203 195v782h43l20 -21l64 -63v-698l-64 -64zM334 63l63 64h877l63 -64l-63 -63h-877zM334 1024l63 63h877l63 -63l-63 -63h-877zM1341 195v698l64 63l20 21h43v-782l-63 -64zM1341 1155v698l64 64l63 -64v-782h-43l-20 21z" />
<glyph unicode="e" d="M203 195v782h43l20 -21l64 -63v-698l-64 -64zM203 1071v782l63 64l64 -64v-698l-64 -63l-20 -21h-43zM334 63l63 64h877l63 -64l-63 -63h-877zM334 1024l63 63h877l63 -63l-63 -63h-877zM334 1985l63 63h877l63 -63l-63 -64h-877z" />
<glyph unicode="f" d="M203 195v782h43l20 -21l64 -63v-698l-64 -64zM203 1071v782l63 64l64 -64v-698l-64 -63l-20 -21h-43zM334 1024l63 63h877l63 -63l-63 -63h-877zM334 1985l63 63h877l63 -63l-63 -64h-877z" />
<glyph unicode="g" d="M203 195v782h43l20 -21l64 -63v-698l-64 -64zM203 1071v782l63 64l64 -64v-698l-64 -63l-20 -21h-43zM334 63l63 64h877l63 -64l-63 -63h-877zM334 1985l63 63h877l63 -63l-63 -64h-877zM1341 195v698l64 63l20 21h43v-782l-63 -64z" />
<glyph unicode="h" d="M203 195v782h43l20 -21l64 -63v-698l-64 -64zM203 1071v782l63 64l64 -64v-698l-64 -63l-20 -21h-43zM334 1024l63 63h877l63 -63l-63 -63h-877zM1341 195v698l64 63l20 21h43v-782l-63 -64z" />
<glyph unicode="i" d="M1341 195v698l64 63l20 21h43v-782l-63 -64z" />
<glyph unicode="j" d="M203 195v782h43l20 -21l64 -63v-698l-64 -64zM334 63l63 64h877l63 -64l-63 -63h-877zM1341 195v698l64 63l20 21h43v-782l-63 -64zM1341 1155v698l64 64l63 -64v-782h-43l-20 21z" />
<glyph unicode="k" d="M203 195v782h43l20 -21l64 -63v-698l-64 -64zM203 1071v782l63 64l64 -64v-698l-64 -63l-20 -21h-43zM334 1024l63 63h877l63 -63l-63 -63h-877zM334 1985l63 63h877l63 -63l-63 -64h-877zM1341 195v698l64 63l20 21h43v-782l-63 -64z" />
<glyph unicode="l" d="M203 195v782h43l20 -21l64 -63v-698l-64 -64zM203 1071v782l63 64l64 -64v-698l-64 -63l-20 -21h-43zM334 63l63 64h877l63 -64l-63 -63h-877z" />
<glyph unicode="m" d="M203 195v782h43l20 -21l64 -63v-698l-64 -64zM203 1071v782l63 64l64 -64v-698l-64 -63l-20 -21h-43zM334 1985l63 63h877l63 -63l-63 -64h-877zM1341 195v698l64 63l20 21h43v-782l-63 -64zM1341 1155v698l64 64l63 -64v-782h-43l-20 21z" />
<glyph unicode="n" d="M203 195v782h43l20 -21l64 -63v-698l-64 -64zM334 1024l63 63h877l63 -63l-63 -63h-877zM1341 195v698l64 63l20 21h43v-782l-63 -64z" />
<glyph unicode="o" d="M203 195v782h43l20 -21l64 -63v-698l-64 -64zM334 63l63 64h877l63 -64l-63 -63h-877zM334 1024l63 63h877l63 -63l-63 -63h-877zM1341 195v698l64 63l20 21h43v-782l-63 -64z" />
<glyph unicode="p" d="M203 195v782h43l20 -21l64 -63v-698l-64 -64zM203 1071v782l63 64l64 -64v-698l-64 -63l-20 -21h-43zM334 1024l63 63h877l63 -63l-63 -63h-877zM334 1985l63 63h877l63 -63l-63 -64h-877zM1341 1155v698l64 64l63 -64v-782h-43l-20 21z" />
<glyph unicode="q" d="M203 1071v782l63 64l64 -64v-698l-64 -63l-20 -21h-43zM334 1024l63 63h877l63 -63l-63 -63h-877zM334 1985l63 63h877l63 -63l-63 -64h-877zM1341 195v698l64 63l20 21h43v-782l-63 -64zM1341 1155v698l64 64l63 -64v-782h-43l-20 21z" />
<glyph unicode="r" d="M203 195v782h43l20 -21l64 -63v-698l-64 -64zM334 1024l63 63h877l63 -63l-63 -63h-877z" />
<glyph unicode="s" d="M203 1071v782l63 64l64 -64v-698l-64 -63l-20 -21h-43zM334 63l63 64h877l63 -64l-63 -63h-877zM334 1024l63 63h877l63 -63l-63 -63h-877zM1341 195v698l64 63l20 21h43v-782l-63 -64z" />
<glyph unicode="t" d="M203 195v782h43l20 -21l64 -63v-698l-64 -64zM203 1071v782l63 64l64 -64v-698l-64 -63l-20 -21h-43zM334 63l63 64h877l63 -64l-63 -63h-877zM334 1024l63 63h877l63 -63l-63 -63h-877z" />
<glyph unicode="u" d="M203 195v782h43l20 -21l64 -63v-698l-64 -64zM334 63l63 64h877l63 -64l-63 -63h-877zM1341 195v698l64 63l20 21h43v-782l-63 -64z" />
<glyph unicode="v" d="M203 195v782h43l20 -21l64 -63v-698l-64 -64zM203 1071v782l63 64l64 -64v-698l-64 -63l-20 -21h-43zM334 63l63 64h877l63 -64l-63 -63h-877zM1341 195v698l64 63l20 21h43v-782l-63 -64zM1341 1155v698l64 64l63 -64v-782h-43l-20 21z" />
<glyph unicode="w" d="M203 195v782h43l20 -21l64 -63v-698l-64 -64zM203 1071v782l63 64l64 -64v-698l-64 -63l-20 -21h-43zM334 63l63 64h877l63 -64l-63 -63h-877zM334 1024l63 63h877l63 -63l-63 -63h-877zM1341 195v698l64 63l20 21h43v-782l-63 -64zM1341 1155v698l64 64l63 -64v-782h-43 l-20 21z" />
<glyph unicode="x" d="M203 195v782h43l20 -21l64 -63v-698l-64 -64zM203 1071v782l63 64l64 -64v-698l-64 -63l-20 -21h-43zM334 1024l63 63h877l63 -63l-63 -63h-877zM1341 195v698l64 63l20 21h43v-782l-63 -64zM1341 1155v698l64 64l63 -64v-782h-43l-20 21z" />
<glyph unicode="y" d="M203 1071v782l63 64l64 -64v-698l-64 -63l-20 -21h-43zM334 63l63 64h877l63 -64l-63 -63h-877zM334 1024l63 63h877l63 -63l-63 -63h-877zM1341 195v698l64 63l20 21h43v-782l-63 -64zM1341 1155v698l64 64l63 -64v-782h-43l-20 21z" />
<glyph unicode="z" d="M203 195v782h43l20 -21l64 -63v-698l-64 -64zM334 63l63 64h877l63 -64l-63 -63h-877zM334 1985l63 63h877l63 -63l-63 -64h-877zM1341 1155v698l64 64l63 -64v-782h-43l-20 21z" />
<glyph unicode="&#xad;" d="M334 1024l63 63h877l63 -63l-63 -63h-877z" />
<glyph unicode="&#x2000;" horiz-adv-x="1024" />
<glyph unicode="&#x2001;" horiz-adv-x="2048" />
<glyph unicode="&#x2002;" horiz-adv-x="1024" />
<glyph unicode="&#x2003;" horiz-adv-x="2048" />
<glyph unicode="&#x2004;" horiz-adv-x="682" />
<glyph unicode="&#x2005;" horiz-adv-x="512" />
<glyph unicode="&#x2006;" horiz-adv-x="341" />
<glyph unicode="&#x2007;" horiz-adv-x="341" />
<glyph unicode="&#x2008;" horiz-adv-x="256" />
<glyph unicode="&#x2009;" horiz-adv-x="409" />
<glyph unicode="&#x200a;" horiz-adv-x="113" />
<glyph unicode="&#x2010;" d="M334 1024l63 63h877l63 -63l-63 -63h-877z" />
<glyph unicode="&#x2011;" d="M334 1024l63 63h877l63 -63l-63 -63h-877z" />
<glyph unicode="&#x2012;" d="M334 1024l63 63h877l63 -63l-63 -63h-877z" />
<glyph unicode="&#x2013;" horiz-adv-x="1692" d="M334 1024l64 63h896l64 -63l-64 -63h-896z" />
<glyph unicode="&#x2014;" horiz-adv-x="2716" d="M334 1024l129 63h1790l129 -63l-129 -63h-1790z" />
<glyph unicode="&#x202f;" horiz-adv-x="409" />
<glyph unicode="&#x205f;" horiz-adv-x="512" />
<glyph unicode="&#x25fc;" horiz-adv-x="1914" d="M0 0v1915h1915v-1915h-1915z" />
</font>
</defs>
</svg>
